<svg width="34" height="34" viewBox="0 0 34 34" fill="none" xmlns="http://www.w3.org/2000/svg">
<path d="M16.7249 30C14.0427 30.0079 11.4554 29.0257 9.4762 27.2481C7.49696 25.4705 6.27035 23.0273 6.03965 20.4031C5.80895 17.779 6.59101 15.1655 8.23072 13.0811C9.87044 10.9967 12.248 9.59354 14.8919 9.14999C23.5987 7.49999 25.89 6.71999 28.945 3C30.4725 5.99999 32 9.26999 32 15C32 23.25 24.6985 30 16.7249 30Z" stroke="#16A249" stroke-width="3" stroke-linecap="round" stroke-linejoin="round"/>
<path d="M3 31C3 26.6667 5.69091 23.2578 10.3891 22.3333C13.9091 21.64 17.5455 19.4444 19 18" stroke="#16A249" stroke-width="3" stroke-linecap="round" stroke-linejoin="round"/>
</svg>
