<svg width="34" height="33" viewBox="0 0 34 33" fill="none" xmlns="http://www.w3.org/2000/svg">
<path d="M16.7249 30C14.0427 30.0079 11.4554 29.0257 9.4762 27.2481C7.49696 25.4705 6.27035 23.0273 6.03965 20.4031C5.80895 17.779 6.59101 15.1655 8.23072 13.0811C9.87044 10.9967 12.248 9.59354 14.8919 9.14999C23.5987 7.49999 25.89 6.71999 28.945 3C30.4725 5.99999 32 9.26999 32 15C32 23.25 24.6985 30 16.7249 30Z" stroke="white" stroke-width="3" stroke-linecap="round" stroke-linejoin="round"/>
<path d="M15.7249 29C13.0427 29.0079 10.4554 28.0257 8.4762 26.2481C6.49696 24.4705 5.27035 22.0273 5.03965 19.4031C4.80895 16.779 5.59101 14.1655 7.23072 12.0811C8.87044 9.99667 11.248 8.59354 13.8919 8.14999C22.5987 6.49999 24.89 5.71999 27.945 2C29.4725 4.99999 31 8.26999 31 14C31 22.25 23.6985 29 15.7249 29Z" stroke="#16A249" stroke-width="3" stroke-linecap="round" stroke-linejoin="round"/>
<path d="M3 31C3 26.6667 5.69091 23.2578 10.3891 22.3333C13.9091 21.64 17.5455 19.4444 19 18" stroke="white" stroke-width="3" stroke-linecap="round" stroke-linejoin="round"/>
<path d="M2 30C2 25.6667 4.69091 22.2578 9.38909 21.3333C12.9091 20.64 16.5455 18.4444 18 17" stroke="#16A249" stroke-width="3" stroke-linecap="round" stroke-linejoin="round"/>
</svg>

